<svg width="14" height="14" viewBox="0 0 14 14" fill="none" xmlns="http://www.w3.org/2000/svg">
<path d="M12.8327 7V9.91667C12.8327 11.6667 11.666 12.8333 9.91602 12.8333H4.08268C2.33268 12.8333 1.16602 11.6667 1.16602 9.91667V7C1.16602 5.41334 2.12268 4.305 3.61018 4.11833C3.76185 4.095 3.91935 4.08334 4.08268 4.08334H9.91602C10.0677 4.08334 10.2135 4.08916 10.3535 4.1125C11.8585 4.2875 12.8327 5.40167 12.8327 7Z" stroke="#05422C" stroke-linecap="round" stroke-linejoin="round"/>
<path d="M10.3547 4.1125C10.2147 4.08916 10.0688 4.08334 9.91716 4.08334H4.08383C3.92049 4.08334 3.76299 4.095 3.61133 4.11834C3.69299 3.955 3.80966 3.80334 3.94966 3.66334L5.84549 1.76166C6.64466 0.968331 7.93966 0.968331 8.73883 1.76166L9.75966 2.79418C10.133 3.16168 10.3313 3.62833 10.3547 4.1125Z" stroke="#05422C" stroke-linecap="round" stroke-linejoin="round"/>
<path d="M12.8327 7.29166H11.0827C10.441 7.29166 9.91602 7.81666 9.91602 8.45833C9.91602 9.1 10.441 9.625 11.0827 9.625H12.8327" stroke="#05422C" stroke-linecap="round" stroke-linejoin="round"/>
</svg>
