<svg width="23" height="22" viewBox="0 0 23 22" fill="none" xmlns="http://www.w3.org/2000/svg">
<path d="M3.57227 6.82001L11.6664 11.5042L19.7056 6.84748" stroke="#05422C" stroke-width="1.5" stroke-linecap="round" stroke-linejoin="round"/>
<path d="M11.666 19.8092V11.495" stroke="#05422C" stroke-width="1.5" stroke-linecap="round" stroke-linejoin="round"/>
<path d="M20.4757 8.40582V13.5942C20.4757 13.64 20.4757 13.6766 20.4666 13.7225C19.8249 13.1633 18.9999 12.8333 18.0832 12.8333C17.2216 12.8333 16.4241 13.1358 15.7916 13.64C14.9482 14.3092 14.4166 15.345 14.4166 16.5C14.4166 17.1875 14.6091 17.8383 14.9482 18.3883C15.0307 18.535 15.1316 18.6725 15.2416 18.8008L13.5641 19.7267C12.5191 20.3133 10.8141 20.3133 9.76907 19.7267L4.87407 17.0133C3.76491 16.3992 2.85742 14.8592 2.85742 13.5942V8.40582C2.85742 7.14082 3.76491 5.60083 4.87407 4.98667L9.76907 2.27331C10.8141 1.68665 12.5191 1.68665 13.5641 2.27331L18.4591 4.98667C19.5682 5.60083 20.4757 7.14082 20.4757 8.40582Z" stroke="#05422C" stroke-width="1.5" stroke-linecap="round" stroke-linejoin="round"/>
<path d="M21.7493 16.5C21.7493 17.6 21.2635 18.5808 20.5027 19.25C19.8519 19.8183 19.0085 20.1666 18.0827 20.1666C16.0568 20.1666 14.416 18.5258 14.416 16.5C14.416 15.345 14.9477 14.3092 15.791 13.64C16.4235 13.1358 17.221 12.8333 18.0827 12.8333C20.1085 12.8333 21.7493 14.4741 21.7493 16.5Z" stroke="#05422C" stroke-width="1.5" stroke-miterlimit="10" stroke-linecap="round" stroke-linejoin="round"/>
<path d="M18.3118 15.3541V16.7291L17.166 17.4166" stroke="#05422C" stroke-width="1.5" stroke-miterlimit="10" stroke-linecap="round" stroke-linejoin="round"/>
</svg>
