<svg width="20" height="20" viewBox="0 0 20 20" fill="none" xmlns="http://www.w3.org/2000/svg">
<path d="M19.7009 12.4183C18.3647 17.7783 12.9343 21.0365 7.5819 19.7004C2.22174 18.3643 -1.03655 12.934 0.299583 7.58173C1.63572 2.22169 7.05839 -1.03653 12.4186 0.299576C17.7709 1.62787 21.037 7.05823 19.7009 12.4183Z" fill="url(#paint0_linear_184_4175)"/>
<path d="M14.7617 8.75403C14.957 7.4259 13.9492 6.70715 12.5586 6.23059L13.0117 4.4259L11.918 4.15247L11.4805 5.91028C11.1914 5.83997 10.8945 5.76965 10.5977 5.70715L11.0352 3.94153L9.94141 3.66809L9.49609 5.46497C9.25391 5.41028 9.01953 5.35559 8.79297 5.3009V5.29309L7.27734 4.91809L6.98828 6.08997C6.98828 6.08997 7.80078 6.27747 7.78516 6.28528C8.23047 6.39465 8.30859 6.69153 8.29297 6.9259L7.77734 8.98059C7.80859 8.9884 7.84766 8.99622 7.89453 9.01965C7.85547 9.01184 7.81641 9.00403 7.77734 8.9884L7.05859 11.8634C7.00391 11.9962 6.86328 12.1993 6.55859 12.1212C6.56641 12.1368 5.76172 11.9259 5.76172 11.9259L5.21484 13.1837L6.64453 13.5431C6.91016 13.6134 7.16797 13.6759 7.42578 13.7462L6.97266 15.5665L8.06641 15.84L8.51953 14.0353C8.81641 14.1134 9.11328 14.1915 9.39453 14.2618L8.94922 16.0587L10.043 16.3322L10.4961 14.5118C12.3711 14.8634 13.7773 14.7228 14.3633 13.0275C14.8398 11.6681 14.3398 10.879 13.3555 10.3634C14.082 10.1993 14.6211 9.72278 14.7617 8.75403ZM12.2539 12.2697C11.918 13.629 9.62109 12.8947 8.87891 12.7072L9.48047 10.2931C10.2227 10.4806 12.6133 10.8478 12.2539 12.2697ZM12.5977 8.73059C12.2852 9.97278 10.3789 9.33997 9.76172 9.18372L10.3086 6.99622C10.9258 7.15247 12.918 7.44153 12.5977 8.73059Z" fill="white"/>
<defs>
<linearGradient id="paint0_linear_184_4175" x1="9.99466" y1="-0.0047105" x2="9.99466" y2="19.998" gradientUnits="userSpaceOnUse">
<stop stop-color="#F9AA4B"/>
<stop offset="1" stop-color="#F7931A"/>
</linearGradient>
</defs>
</svg>
