<svg width="38" height="14" viewBox="0 0 38 14" fill="none" xmlns="http://www.w3.org/2000/svg">
<path d="M19.6045 5.06401C19.5845 6.55968 21.0136 7.39437 22.0902 7.89059C23.1964 8.3998 23.5679 8.72629 23.5637 9.18158C23.5552 9.87849 22.6813 10.186 21.8633 10.198C20.4363 10.219 19.6066 9.83356 18.947 9.54201L18.4329 11.8175C19.0947 12.106 20.3201 12.3576 21.591 12.3686C24.5738 12.3686 26.5254 10.9758 26.5359 8.81615C26.5476 6.07543 22.5282 5.92367 22.5557 4.69859C22.5652 4.32717 22.9399 3.93079 23.7611 3.82994C24.1674 3.77902 25.2894 3.74009 26.5613 4.29422L27.0605 2.09266C26.3766 1.85703 25.4973 1.63138 24.4028 1.63138C21.5952 1.63138 19.6204 3.04318 19.6045 5.06401ZM31.8577 1.82109C31.3131 1.82109 30.854 2.12162 30.6492 2.5829L26.3882 12.2068H29.3689L29.9621 10.6563H33.6046L33.9487 12.2068H36.5758L34.2833 1.82109H31.8577ZM32.2747 4.6267L33.1349 8.5266H30.779L32.2747 4.6267ZM15.9905 1.82109L13.641 12.2068H16.4813L18.8298 1.82109H15.9905ZM11.7886 1.82109L8.83217 8.89003L7.6363 2.87943C7.49592 2.20848 6.94178 1.82109 6.32643 1.82109H1.49333L1.42578 2.12261C2.41794 2.3263 3.54521 2.65478 4.22811 3.00623C4.64609 3.2209 4.76536 3.4086 4.90257 3.91881L7.16766 12.2068H10.1695L14.7714 1.82109H11.7886Z" fill="url(#paint0_linear_184_4173)"/>
<defs>
<linearGradient id="paint0_linear_184_4173" x1="17.5857" y1="12.584" x2="17.8797" y2="1.5558" gradientUnits="userSpaceOnUse">
<stop stop-color="#222357"/>
<stop offset="1" stop-color="#254AA5"/>
</linearGradient>
</defs>
</svg>
