<svg width="33" height="32" viewBox="0 0 33 32" fill="none" xmlns="http://www.w3.org/2000/svg">
<path d="M10.8604 27C11.4126 27 11.8604 26.5523 11.8604 26C11.8604 25.4477 11.4126 25 10.8604 25C10.3081 25 9.86035 25.4477 9.86035 26C9.86035 26.5523 10.3081 27 10.8604 27Z" stroke="white" stroke-width="2" stroke-linecap="round" stroke-linejoin="round"/>
<path d="M24.8604 27C25.4126 27 25.8604 26.5523 25.8604 26C25.8604 25.4477 25.4126 25 24.8604 25C24.3081 25 23.8604 25.4477 23.8604 26C23.8604 26.5523 24.3081 27 24.8604 27Z" stroke="white" stroke-width="2" stroke-linecap="round" stroke-linejoin="round"/>
<path d="M2.86035 5H6.86035L9.86035 22H25.8604" stroke="white" stroke-width="2" stroke-linecap="round" stroke-linejoin="round"/>
<path d="M9.86035 18H25.4503C25.566 18.0001 25.6781 17.9601 25.7675 17.8868C25.857 17.8135 25.9183 17.7115 25.941 17.5981L27.741 8.59813C27.7555 8.52555 27.7537 8.45066 27.7358 8.37886C27.7179 8.30705 27.6842 8.24012 27.6373 8.1829C27.5903 8.12567 27.5313 8.07959 27.4644 8.04796C27.3975 8.01633 27.3244 7.99995 27.2503 8H7.86035" stroke="white" stroke-width="2" stroke-linecap="round" stroke-linejoin="round"/>
</svg>
