<svg width="30" height="30" viewBox="0 0 30 30" fill="none" xmlns="http://www.w3.org/2000/svg">
<path d="M15 28.1251C11.519 28.1251 8.18064 26.7423 5.71922 24.2809C3.25781 21.8195 1.875 18.4811 1.875 15.0001C1.875 11.5192 3.25781 8.18076 5.71922 5.71935C8.18064 3.25793 11.519 1.87512 15 1.87512C18.481 1.87512 21.8194 3.25793 24.2808 5.71935C26.7422 8.18076 28.125 11.5192 28.125 15.0001C28.125 18.4811 26.7422 21.8195 24.2808 24.2809C21.8194 26.7423 18.481 28.1251 15 28.1251ZM15 3.75012C12.0163 3.75012 9.15483 4.93539 7.04505 7.04517C4.93526 9.15496 3.75 12.0164 3.75 15.0001C3.75 17.9838 4.93526 20.8453 7.04505 22.9551C9.15483 25.0649 12.0163 26.2501 15 26.2501C17.9837 26.2501 20.8452 25.0649 22.955 22.9551C25.0647 20.8453 26.25 17.9838 26.25 15.0001C26.25 12.0164 25.0647 9.15496 22.9549 7.04517C20.8452 4.93539 17.9837 3.75012 15 3.75012ZM13.5937 8.90637C13.5937 8.53341 13.7419 8.17573 14.0056 7.91201C14.2694 7.64828 14.627 7.50012 15 7.50012C15.373 7.50012 15.7306 7.64828 15.9944 7.91201C16.2581 8.17573 16.4062 8.53341 16.4062 8.90637C16.4062 9.27933 16.2581 9.63702 15.9944 9.90074C15.7306 10.1645 15.373 10.3126 15 10.3126C14.627 10.3126 14.2694 10.1645 14.0056 9.90074C13.7419 9.63702 13.5937 9.27933 13.5937 8.90637ZM15 22.5001C14.7514 22.5001 14.5129 22.4014 14.3371 22.2255C14.1613 22.0497 14.0625 21.8113 14.0625 21.5626L14.0625 13.1251C14.0625 12.8765 14.1613 12.638 14.3371 12.4622C14.5129 12.2864 14.7514 12.1876 15 12.1876C15.2486 12.1876 15.4871 12.2864 15.6629 12.4622C15.8387 12.638 15.9375 12.8765 15.9375 13.1251L15.9375 21.5626C15.9375 21.8113 15.8387 22.0497 15.6629 22.2255C15.4871 22.4014 15.2486 22.5001 15 22.5001Z" fill="white"/>
</svg>
