<svg width="26" height="26" viewBox="0 0 26 26" fill="none" xmlns="http://www.w3.org/2000/svg">
<path d="M9.25 10.5001L13.3225 13.5551C13.5748 13.7443 13.8893 13.8312 14.203 13.7983C14.5166 13.7653 14.8062 13.6151 15.0138 13.3776L23 4.25009" stroke="white" stroke-width="3" stroke-linecap="round"/>
<path d="M24.25 13.0001C24.25 15.3508 23.5138 17.6424 22.1446 19.5531C20.7754 21.4639 18.8421 22.8977 16.6161 23.6533C14.3902 24.4089 11.9836 24.4482 9.73413 23.7658C7.4847 23.0834 5.50553 21.7136 4.07459 19.8486C2.64365 17.9837 1.83283 15.7174 1.75601 13.368C1.67919 11.0186 2.34023 8.70411 3.64628 6.74968C4.95233 4.79524 6.83779 3.29901 9.03783 2.47112C11.2379 1.64324 13.642 1.52529 15.9125 2.13385" stroke="white" stroke-width="3" stroke-linecap="round"/>
</svg>
