<svg width="21" height="19" viewBox="0 0 21 19" fill="none" xmlns="http://www.w3.org/2000/svg">
<path d="M10.3398 6.17417L13.346 9.1803L13.3603 9.02284C13.3603 7.44341 12.0767 6.15985 10.4973 6.15985L10.3398 6.17417Z" fill="black"/>
<path d="M10.4973 4.25122C13.1312 4.25122 15.2689 6.38894 15.2689 9.02288C15.2689 9.63842 15.1449 10.2253 14.9302 10.7645L17.7216 13.5559C19.1626 12.3535 20.2983 10.7979 20.9997 9.02288C19.344 4.83339 15.2737 1.86542 10.4973 1.86542C9.16125 1.86542 7.88248 2.10398 6.69434 2.53343L8.75569 4.59C9.29482 4.38006 9.88174 4.25122 10.4973 4.25122Z" fill="black"/>
<path d="M0.954313 1.65067L3.13018 3.82654L3.56442 4.26077C1.98977 5.49186 0.744376 7.12854 0 9.02286C1.651 13.2123 5.72597 16.1803 10.4976 16.1803C11.9769 16.1803 13.3892 15.894 14.6824 15.3739L15.088 15.7795L17.8699 18.5661L19.0866 17.3541L2.17108 0.433899L0.954313 1.65067ZM6.23178 6.92335L7.70622 8.39779C7.66327 8.60298 7.63464 8.80813 7.63464 9.02286C7.63464 10.6023 8.9182 11.8858 10.4976 11.8858C10.7124 11.8858 10.9175 11.8572 11.118 11.8143L12.5924 13.2887C11.9577 13.6036 11.2516 13.7945 10.4976 13.7945C7.86368 13.7945 5.72597 11.6568 5.72597 9.02286C5.72597 8.26895 5.91685 7.56273 6.23178 6.92335Z" fill="black"/>
</svg>
