<svg width="14" height="13" viewBox="0 0 14 13" fill="none" xmlns="http://www.w3.org/2000/svg">
<rect x="0.533203" width="12.8" height="12.8" rx="6.4" fill="#EB2606"/>
<path d="M6.92434 11.025C6.25767 11.025 5.68267 10.8417 5.19934 10.475C4.72434 10.1083 4.35767 9.59166 4.09934 8.92499C3.84101 8.24999 3.71184 7.44999 3.71184 6.52499C3.71184 5.59999 3.84101 4.80416 4.09934 4.13749C4.35767 3.46249 4.72434 2.94166 5.19934 2.57499C5.68267 2.20833 6.25767 2.02499 6.92434 2.02499C7.59101 2.02499 8.16601 2.20833 8.64934 2.57499C9.13267 2.94166 9.50351 3.46249 9.76184 4.13749C10.0202 4.80416 10.1493 5.59999 10.1493 6.52499C10.1493 7.44999 10.0202 8.24999 9.76184 8.92499C9.50351 9.59166 9.13267 10.1083 8.64934 10.475C8.16601 10.8417 7.59101 11.025 6.92434 11.025ZM6.92434 9.79999C7.53267 9.79999 8.00351 9.51666 8.33684 8.94999C8.67017 8.37499 8.83684 7.56666 8.83684 6.52499C8.83684 5.48333 8.67017 4.67916 8.33684 4.11249C8.00351 3.53749 7.53267 3.24999 6.92434 3.24999C6.31601 3.24999 5.84517 3.53749 5.51184 4.11249C5.17851 4.67916 5.01184 5.48333 5.01184 6.52499C5.01184 7.56666 5.17851 8.37499 5.51184 8.94999C5.84517 9.51666 6.31601 9.79999 6.92434 9.79999Z" fill="white"/>
</svg>
