<svg width="28" height="24" viewBox="0 0 28 24" fill="none" xmlns="http://www.w3.org/2000/svg">
<path d="M9.69324 23C10.2455 23 10.6932 22.5523 10.6932 22C10.6932 21.4477 10.2455 21 9.69324 21C9.14095 21 8.69324 21.4477 8.69324 22C8.69324 22.5523 9.14095 23 9.69324 23Z" stroke="white" stroke-width="2" stroke-linecap="round" stroke-linejoin="round"/>
<path d="M23.6932 23C24.2455 23 24.6932 22.5523 24.6932 22C24.6932 21.4477 24.2455 21 23.6932 21C23.141 21 22.6932 21.4477 22.6932 22C22.6932 22.5523 23.141 23 23.6932 23Z" stroke="white" stroke-width="2" stroke-linecap="round" stroke-linejoin="round"/>
<path d="M1.69324 1H5.69324L8.69324 18H24.6932" stroke="white" stroke-width="2" stroke-linecap="round" stroke-linejoin="round"/>
<path d="M8.69324 14H24.2832C24.3989 14.0001 24.511 13.9601 24.6004 13.8868C24.6899 13.8135 24.7512 13.7115 24.7739 13.5981L26.5739 4.59813C26.5884 4.52555 26.5866 4.45066 26.5687 4.37886C26.5508 4.30705 26.5171 4.24012 26.4702 4.1829C26.4232 4.12567 26.3642 4.07959 26.2973 4.04796C26.2303 4.01633 26.1572 3.99995 26.0832 4H6.69324" stroke="white" stroke-width="2" stroke-linecap="round" stroke-linejoin="round"/>
</svg>
