<svg width="26" height="27" viewBox="0 0 26 27" fill="none" xmlns="http://www.w3.org/2000/svg">
<g clip-path="url(#clip0_184_1447)">
<path d="M12.1732 22.4042C12.6817 22.0973 13.3183 22.0973 13.8268 22.4042L19.0567 25.5608C20.2684 26.2922 21.7632 25.2058 21.4416 23.8274L20.0536 17.8788C19.9186 17.3004 20.1152 16.6948 20.5641 16.3059L25.1869 12.3013C26.2567 11.3746 25.6848 9.61734 24.2745 9.49773L18.1915 8.98182C17.6002 8.93167 17.0852 8.55834 16.8536 8.01194L14.4732 2.39574C13.9218 1.09493 12.0782 1.09494 11.5269 2.39574L9.14645 8.01194C8.91486 8.55834 8.39986 8.93167 7.80853 8.98182L1.7256 9.49773C0.315289 9.61734 -0.256595 11.3746 0.813196 12.3013L5.43596 16.3059C5.88489 16.6948 6.08144 17.3004 5.94648 17.8788L4.55848 23.8274C4.23687 25.2058 5.73168 26.2922 6.94341 25.5608L12.1732 22.4042Z" fill="#BCBACD"/>
</g>
<defs>
<clipPath id="clip0_184_1447">
<rect width="26" height="26" fill="white" transform="translate(0 0.220215)"/>
</clipPath>
</defs>
</svg>
