<svg width="26" height="25" viewBox="0 0 26 25" fill="none" xmlns="http://www.w3.org/2000/svg">
<path d="M12.1732 21.4042C12.6817 21.0973 13.3183 21.0973 13.8268 21.4042L19.0567 24.5608C20.2684 25.2922 21.7632 24.2058 21.4416 22.8274L20.0536 16.8788C19.9186 16.3004 20.1152 15.6948 20.5641 15.3059L25.1869 11.3013C26.2567 10.3746 25.6848 8.61734 24.2745 8.49773L18.1915 7.98182C17.6002 7.93167 17.0852 7.55834 16.8536 7.01194L14.4732 1.39574C13.9218 0.0949328 12.0782 0.0949366 11.5269 1.39574L9.14645 7.01194C8.91486 7.55834 8.39986 7.93167 7.80853 7.98182L1.7256 8.49773C0.315289 8.61734 -0.256595 10.3746 0.813196 11.3013L5.43596 15.3059C5.88489 15.6948 6.08144 16.3004 5.94648 16.8788L4.55848 22.8274C4.23687 24.2058 5.73168 25.2922 6.94341 24.5608L12.1732 21.4042Z" fill="#95C93D"/>
</svg>
