<svg width="51" height="51" viewBox="0 0 51 51" fill="none" xmlns="http://www.w3.org/2000/svg">
<path d="M46.3523 1.7017C45.4818 1.21733 44.5244 0.909296 43.5347 0.795222C42.5451 0.681148 41.5427 0.763269 40.5849 1.03689C39.627 1.31051 38.7325 1.77027 37.9525 2.38986C37.1724 3.00946 36.5222 3.77674 36.0389 4.64783L21.9605 29.9837L13.9032 21.9265C13.2036 21.2022 12.3669 20.6245 11.4417 20.227C10.5165 19.8296 9.52137 19.6204 8.51446 19.6116C7.50755 19.6029 6.50898 19.7948 5.57702 20.1761C4.64505 20.5574 3.79836 21.1204 3.08634 21.8325C2.37432 22.5445 1.81124 23.3912 1.42994 24.3231C1.04864 25.2551 0.856771 26.2537 0.865521 27.2606C0.87427 28.2675 1.08347 29.2626 1.4809 30.1878C1.87834 31.113 2.45605 31.9498 3.18034 32.6493L18.347 47.816C19.7803 49.253 21.714 50.0417 23.7084 50.0417L24.7587 49.9658C25.921 49.8032 27.0298 49.3731 27.9976 48.7092C28.9655 48.0453 29.766 47.1659 30.3363 46.14L49.2946 12.015C49.7786 11.1447 50.0865 10.1875 50.2005 9.19813C50.3146 8.20879 50.2327 7.20665 49.9595 6.24896C49.6863 5.29127 49.2271 4.39678 48.6081 3.61655C47.9892 2.83633 47.2227 2.18567 46.3523 1.7017Z" fill="#24FF00"/>
</svg>
