<svg width="23" height="22" viewBox="0 0 23 22" fill="none" xmlns="http://www.w3.org/2000/svg">
<path d="M14.0846 1.83331V11C14.0846 12.0083 13.2596 12.8333 12.2513 12.8333H2.16797V6.98498C2.83714 7.78248 3.86383 8.27748 5.00049 8.24998C5.92633 8.23165 6.76047 7.87415 7.3838 7.27832C7.66797 7.03998 7.90632 6.73747 8.08966 6.40747C8.41966 5.8483 8.60297 5.18829 8.58464 4.50079C8.55714 3.42829 8.08048 2.48415 7.33798 1.83331H14.0846Z" stroke="#05422C" stroke-width="1.5" stroke-linecap="round" stroke-linejoin="round"/>
<path d="M20.5013 12.8333V15.5833C20.5013 17.105 19.273 18.3333 17.7513 18.3333H16.8346C16.8346 17.325 16.0096 16.5 15.0013 16.5C13.993 16.5 13.168 17.325 13.168 18.3333H9.5013C9.5013 17.325 8.6763 16.5 7.66797 16.5C6.65964 16.5 5.83464 17.325 5.83464 18.3333H4.91797C3.3963 18.3333 2.16797 17.105 2.16797 15.5833V12.8333H12.2513C13.2596 12.8333 14.0846 12.0083 14.0846 11V4.58331H15.7713C16.4313 4.58331 17.0363 4.94082 17.3663 5.50916L18.9338 8.24998H17.7513C17.2471 8.24998 16.8346 8.66248 16.8346 9.16665V11.9166C16.8346 12.4208 17.2471 12.8333 17.7513 12.8333H20.5013Z" stroke="#05422C" stroke-width="1.5" stroke-linecap="round" stroke-linejoin="round"/>
<path d="M7.66732 20.1667C8.67984 20.1667 9.50065 19.3459 9.50065 18.3333C9.50065 17.3208 8.67984 16.5 7.66732 16.5C6.6548 16.5 5.83398 17.3208 5.83398 18.3333C5.83398 19.3459 6.6548 20.1667 7.66732 20.1667Z" stroke="#05422C" stroke-width="1.5" stroke-linecap="round" stroke-linejoin="round"/>
<path d="M15.0013 20.1667C16.0138 20.1667 16.8346 19.3459 16.8346 18.3333C16.8346 17.3208 16.0138 16.5 15.0013 16.5C13.9888 16.5 13.168 17.3208 13.168 18.3333C13.168 19.3459 13.9888 20.1667 15.0013 20.1667Z" stroke="#05422C" stroke-width="1.5" stroke-linecap="round" stroke-linejoin="round"/>
<path d="M20.5007 11V12.8333H17.7507C17.2465 12.8333 16.834 12.4208 16.834 11.9167V9.16667C16.834 8.6625 17.2465 8.25 17.7507 8.25H18.9331L20.5007 11Z" stroke="#05422C" stroke-width="1.5" stroke-linecap="round" stroke-linejoin="round"/>
<path d="M8.58333 4.58335C8.58333 5.68335 8.09751 6.66419 7.33668 7.33335C6.68585 7.90169 5.8425 8.25002 4.91667 8.25002C2.89083 8.25002 1.25 6.60919 1.25 4.58335C1.25 3.42835 1.78167 2.39252 2.625 1.72336C3.2575 1.21919 4.055 0.916687 4.91667 0.916687C6.9425 0.916687 8.58333 2.55752 8.58333 4.58335Z" stroke="#05422C" stroke-width="1.5" stroke-miterlimit="10" stroke-linecap="round" stroke-linejoin="round"/>
<path d="M5.14583 3.4375V4.8125L4 5.5" stroke="#05422C" stroke-width="1.5" stroke-miterlimit="10" stroke-linecap="round" stroke-linejoin="round"/>
</svg>
