<svg width="22" height="28" viewBox="0 0 22 28" fill="none" xmlns="http://www.w3.org/2000/svg">
<path d="M18.34 16.6667C19.1352 16.6674 19.8975 16.9838 20.4596 17.5463C21.0216 18.1088 21.3373 18.8715 21.3373 19.6667V20.4333C21.3373 21.6253 20.9106 22.7787 20.1373 23.684C18.044 26.128 14.8613 27.3347 10.6666 27.3347C6.47198 27.3347 3.29064 26.128 1.20264 23.6813C0.430121 22.7765 0.00558639 21.6258 0.00531006 20.436V19.6653C0.0056634 18.8702 0.321707 18.1076 0.883989 17.5454C1.44627 16.9831 2.20879 16.667 3.00398 16.6667H18.34ZM18.34 18.6667H3.00264C2.73743 18.6667 2.48307 18.772 2.29554 18.9596C2.108 19.1471 2.00264 19.4015 2.00264 19.6667V20.436C2.00264 21.1493 2.25864 21.84 2.72264 22.3827C4.39331 24.3413 7.01598 25.3347 10.6653 25.3347C14.3173 25.3347 16.94 24.3413 18.616 22.384C19.0808 21.8404 19.3362 21.1486 19.336 20.4333V19.6653C19.3356 19.4008 19.2305 19.1472 19.0436 18.96C18.8566 18.7729 18.6045 18.6674 18.34 18.6667ZM10.6666 0.67334C11.5421 0.67334 12.409 0.845778 13.2179 1.18081C14.0267 1.51584 14.7616 2.0069 15.3807 2.62596C15.9997 3.24502 16.4908 3.97995 16.8258 4.78878C17.1609 5.59762 17.3333 6.46453 17.3333 7.34001C17.3333 8.21549 17.1609 9.08239 16.8258 9.89123C16.4908 10.7001 15.9997 11.435 15.3807 12.0541C14.7616 12.6731 14.0267 13.1642 13.2179 13.4992C12.409 13.8342 11.5421 14.0067 10.6666 14.0067C8.89853 14.0067 7.20284 13.3043 5.9526 12.0541C4.70236 10.8038 3.99998 9.10812 3.99998 7.34001C3.99998 5.5719 4.70236 3.8762 5.9526 2.62596C7.20284 1.37572 8.89853 0.67334 10.6666 0.67334ZM10.6666 2.67334C10.0538 2.67334 9.44697 2.79405 8.88079 3.02857C8.3146 3.26309 7.80015 3.60683 7.36681 4.04017C6.93347 4.47351 6.58973 4.98796 6.35521 5.55415C6.12068 6.12034 5.99998 6.72717 5.99998 7.34001C5.99998 7.95284 6.12068 8.55968 6.35521 9.12586C6.58973 9.69205 6.93347 10.2065 7.36681 10.6398C7.80015 11.0732 8.3146 11.4169 8.88079 11.6514C9.44697 11.886 10.0538 12.0067 10.6666 12.0067C11.9043 12.0067 13.0913 11.515 13.9665 10.6398C14.8416 9.76467 15.3333 8.57768 15.3333 7.34001C15.3333 6.10233 14.8416 4.91534 13.9665 4.04017C13.0913 3.165 11.9043 2.67334 10.6666 2.67334Z" fill="#95C93D"/>
</svg>
